<?xml version="1.0" encoding="UTF-8"?>
<svg width="100pt" height="100pt" version="1.1" viewBox="0 0 100 100" xmlns="http://www.w3.org/2000/svg">
 <g>
  <path d="m78.125 26.562h-56.25c-0.86328 0-1.5625 0.69922-1.5625 1.5625v9.375c0 11.633 6.7422 21.695 16.508 26.562h-5.5703c-0.86328 0-1.5625 0.69922-1.5625 1.5625s0.69922 1.5625 1.5625 1.5625h37.5c0.86328 0 1.5625-0.69922 1.5625-1.5625s-0.69922-1.5625-1.5625-1.5625h-5.5703c9.7656-4.8672 16.508-14.93 16.508-26.562v-9.375c0-0.86328-0.69922-1.5625-1.5625-1.5625zm-1.5625 10.938c0 14.648-11.914 26.562-26.562 26.562s-26.562-11.914-26.562-26.562v-7.8125h53.125z"/>
  <path d="m50 20.312c0.86328 0 1.5625-0.69922 1.5625-1.5625v-6.25c0-0.86328-0.69922-1.5625-1.5625-1.5625s-1.5625 0.69922-1.5625 1.5625v6.25c0 0.86328 0.69922 1.5625 1.5625 1.5625z"/>
  <path d="m34.375 20.312c0.86328 0 1.5625-0.69922 1.5625-1.5625v-3.125c0-0.86328-0.69922-1.5625-1.5625-1.5625s-1.5625 0.69922-1.5625 1.5625v3.125c0 0.86328 0.69922 1.5625 1.5625 1.5625z"/>
  <path d="m65.625 20.312c0.86328 0 1.5625-0.69922 1.5625-1.5625v-3.125c0-0.86328-0.69922-1.5625-1.5625-1.5625s-1.5625 0.69922-1.5625 1.5625v3.125c0 0.86328 0.69922 1.5625 1.5625 1.5625z"/>
  <path d="m71.875 79.688h-26.668c-0.5-4.1406-3.0781-6.25-7.707-6.25-6.1328 0-10.938 3.4297-10.938 7.8125s4.8047 7.8125 10.938 7.8125c4.6289 0 7.2031-2.1094 7.707-6.25h26.668c0.86328 0 1.5625-0.69922 1.5625-1.5625s-0.69922-1.5625-1.5625-1.5625zm-34.375 6.25c-4.2344 0-7.8125-2.1484-7.8125-4.6875s3.5781-4.6875 7.8125-4.6875c3.9414 0 4.6875 1.6484 4.6875 4.6875s-0.74609 4.6875-4.6875 4.6875z"/>
 </g>
</svg>
