<?xml version="1.0" encoding="UTF-8"?>
<svg width="100pt" height="100pt" version="1.1" viewBox="0 0 100 100" xmlns="http://www.w3.org/2000/svg">
 <path d="m92.883 63.363c0.007813-0.023437 0.019532-0.046875 0.027344-0.070312 1.3203-4.2891 1.9922-8.7617 1.9922-13.297 0-24.863-20.227-45.09-45.09-45.09-24.863 0.003906-45.09 20.23-45.09 45.094s20.227 45.09 45.09 45.09c5.6289 0 11.109-1.0312 16.309-3.0508 1.0469 0.46094 2.1328 0.86328 3.2773 1.1523 1.6797 0.42578 3.4062 0.64453 5.125 0.64453 5.2734 0 10.168-1.9922 13.879-5.3359 0 0 0.003906 0 0.003906-0.003906 2.9727-2.6797 5.1875-6.2227 6.2305-10.32 1.293-5.1211 0.59766-10.363-1.7539-14.812zm-43.07 28.727c-23.207 0-42.09-18.883-42.09-42.09 0-23.211 18.883-42.09 42.09-42.09 23.211 0 42.09 18.883 42.09 42.09 0 3.4102-0.41406 6.7812-1.2148 10.059-1.125-1.3945-2.4336-2.6641-3.9336-3.7617-2.1445-1.5664-4.5469-2.6953-7.1406-3.3555-1.2031-0.30469-2.4258-0.49609-3.6562-0.58594 0.011719-0.28516 0.023438-0.56641 0.027344-0.85547h10.887c0.82812 0 1.5-0.67188 1.5-1.5s-0.67188-1.5-1.5-1.5h-10.898c-0.15234-5.9141-1.1641-11.668-2.9414-17h7.3828c0.82813 0 1.5-0.67188 1.5-1.5s-0.67187-1.5-1.5-1.5h-8.4766c-2.1719-5.4219-5.1562-10.32-8.8594-14.387-0.55859-0.61328-1.5078-0.65234-2.1172-0.097656-0.61328 0.55859-0.65625 1.5078-0.097657 2.1172 3.2109 3.5195 5.8438 7.7227 7.832 12.363l-17.383 0.003906v-15.68c0-0.82812-0.67188-1.5-1.5-1.5s-1.5 0.67188-1.5 1.5v15.68h-17.379c1.9883-4.6406 4.6211-8.8438 7.832-12.363 0.55859-0.61328 0.51562-1.5625-0.097656-2.1172-0.60938-0.55859-1.5625-0.51562-2.1172 0.097657-3.707 4.0664-6.6914 8.9648-8.8633 14.387h-9.8164c-0.82812 0-1.5 0.67188-1.5 1.5s0.67188 1.5 1.5 1.5h8.7227c-1.7773 5.332-2.7891 11.086-2.9414 17l-11.406-0.003906c-0.82812 0-1.5 0.67188-1.5 1.5s0.67188 1.5 1.5 1.5h11.402c0.14453 5.9023 1.1484 11.66 2.9258 17h-8.7031c-0.82812 0-1.5 0.67188-1.5 1.5s0.67188 1.5 1.5 1.5h9.7852c2.0586 5.1602 4.8633 9.8477 8.3164 13.781 0.29688 0.33984 0.71094 0.51172 1.1289 0.51172 0.35156 0 0.70313-0.12109 0.98828-0.37109 0.62109-0.54688 0.68359-1.4961 0.13672-2.1172-2.9805-3.3945-5.4375-7.3984-7.3164-11.801h17.398l0.003906 15.496c0 0.82812 0.67188 1.5 1.5 1.5s1.5-0.67188 1.5-1.5v-15.5h2.5078c-0.5625 7.3867 2.8945 14.441 8.8281 18.586-4.1328 1.3242-8.4375 2.0039-12.836 2.0039zm10.664-34.305c-0.027343 0.023438-0.0625 0.03125-0.089843 0.054688-0.027344 0.027344-0.039063 0.0625-0.066407 0.089844-2.2266 2.0742-4.0117 4.6445-5.1523 7.5664-0.3125 0.79688-0.57812 1.625-0.78906 2.4609-0.046875 0.17969-0.066406 0.35938-0.10938 0.53906h-2.957v-17h21.676c-0.007812 0.29297-0.019531 0.57422-0.03125 0.85938-4.6953 0.35938-9.0859 2.3281-12.48 5.4297zm-12.164-9.2852h-21.66c0.16016-5.9453 1.2227-11.711 3.1016-17h18.562zm3-17h18.559c1.8789 5.2891 2.9375 11.055 3.0977 17h-21.656zm-3 20v17h-18.578c-1.875-5.2969-2.9336-11.066-3.082-17zm21.82 38.785c-9.4922-2.4102-15.258-12.094-12.848-21.59 0.18359-0.71875 0.41016-1.4258 0.67578-2.1094 0.79687-2.043 1.9648-3.8828 3.4023-5.4531l23.855 26.105c-3.0039 2.2695-6.7227 3.5977-10.699 3.5977-1.4688 0-2.9453-0.18359-4.3867-0.55078zm21.59-12.848c-0.76172 3.0039-2.2617 5.6562-4.2695 7.7969l-23.887-26.141c3.0664-2.3984 6.9023-3.7969 10.926-3.7969 1.4688 0 2.9453 0.18359 4.3828 0.55078 2.2227 0.5625 4.2773 1.5312 6.1094 2.8672 5.8867 4.3047 8.5352 11.652 6.7383 18.723z"/>
</svg>
