<?xml version="1.0" encoding="UTF-8"?>
<svg width="100pt" height="100pt" version="1.1" viewBox="0 0 100 100" xmlns="http://www.w3.org/2000/svg">
 <path d="m50 7c-23.738 0-43 19.262-43 43 0 23.734 19.262 43 43 43s43-19.266 43-43c0-21.645-16.012-39.574-36.844-42.562-0.27344-0.070312-0.56641-0.019531-0.80469 0.13672-0.23437 0.16016-0.39062 0.41016-0.43359 0.69141-0.039063 0.28125 0.042969 0.56641 0.22656 0.78125 0.17969 0.21875 0.44531 0.34766 0.73047 0.35938 19.859 2.8477 35.125 19.934 35.125 40.594 0 22.656-18.344 41-41 41s-41-18.344-41-41 18.344-41 41-41c0.26953 0.003906 0.52734-0.10156 0.71484-0.28906 0.19141-0.1875 0.30078-0.44141 0.30078-0.71094s-0.10938-0.52344-0.30078-0.71094c-0.1875-0.1875-0.44531-0.29297-0.71484-0.28906zm-0.125 10.969c-0.51562 0.066406-0.89453 0.51172-0.875 1.0312v29.219l-18.5-11.094c-0.23047-0.16797-0.51953-0.23047-0.79688-0.17578-0.27734 0.058593-0.51953 0.23047-0.66016 0.47656-0.14453 0.24609-0.17578 0.54297-0.089844 0.8125 0.089844 0.26953 0.28906 0.48828 0.54688 0.60547l20 12c0.30469 0.17578 0.68359 0.17969 0.99219 0.003906 0.30469-0.17188 0.5-0.49609 0.50781-0.84766v-31c0.011719-0.29297-0.10547-0.57812-0.32422-0.77734-0.21484-0.19922-0.50781-0.28906-0.80078-0.25391zm-31.062 31.031c-0.55078 0.050781-0.95703 0.54297-0.90625 1.0938s0.54297 0.95703 1.0938 0.90625h4c0.26953 0.003906 0.52734-0.10156 0.71484-0.28906 0.19141-0.1875 0.30078-0.44141 0.30078-0.71094s-0.10938-0.52344-0.30078-0.71094c-0.1875-0.1875-0.44531-0.29297-0.71484-0.28906h-4c-0.0625-0.007812-0.125-0.007812-0.1875 0zm58 0c-0.55078 0.050781-0.95703 0.54297-0.90625 1.0938s0.54297 0.95703 1.0938 0.90625h4c0.26953 0.003906 0.52734-0.10156 0.71484-0.28906 0.19141-0.1875 0.30078-0.44141 0.30078-0.71094s-0.10938-0.52344-0.30078-0.71094c-0.1875-0.1875-0.44531-0.29297-0.71484-0.28906h-4c-0.0625-0.007812-0.125-0.007812-0.1875 0zm-26.938 26.969c-0.51562 0.066406-0.89453 0.51172-0.875 1.0312v4c-0.003906 0.26953 0.10156 0.52734 0.28906 0.71484 0.1875 0.19141 0.44141 0.30078 0.71094 0.30078s0.52344-0.10938 0.71094-0.30078c0.1875-0.1875 0.29297-0.44531 0.28906-0.71484v-4c0.011719-0.29297-0.10547-0.57812-0.32422-0.77734-0.21484-0.19922-0.50781-0.28906-0.80078-0.25391z"/>
</svg>
