<?xml version="1.0" encoding="UTF-8"?>
<svg version="1.1" viewBox="0 0 100 100" xmlns="http://www.w3.org/2000/svg">
 <g>
  <path d="m98.594 88.547-14.219-25.109-11.547 15.719-11.266-24.266-1.3594-2.9375-9.375-20.047v-4.9844c1.3047 0.31641 2.6406 0.47656 3.9844 0.48438 1.6094 0.011719 3.2031-0.30078 4.6875-0.92188 2.7812-0.60938 5.6562-0.60938 8.4375 0l1.8906 0.39062v-12.734l-1.0781-0.26562c-3.4375-0.6875-7.3281-1.2344-10.141 0-2.4961 0.82812-5.1836 0.89453-7.7188 0.1875v-3.3125c-0.085937-0.88281-0.82422-1.5547-1.7109-1.5547-0.88672 0-1.625 0.67188-1.7109 1.5547v19.344l-8.25 21.875-1.7188 4.4688-3.2344 8.5625-6.25-15.094-26.812 43.656h88.438c0.86328 0 1.5625-0.69922 1.5625-1.5625s-0.69922-1.5625-1.5625-1.5625h-82.812l20.625-33.688 6.9219 16.688 7.1875-18.891c2.5781-0.11719 5.1562 0.23438 7.6094 1.0312 2.5 0.73828 5.082 1.1641 7.6875 1.2656 0.67969 0 1.3555-0.10938 2-0.32812l13.344 28.75 11.875-16.094 11.797 20.906c0.42969 0.75 1.3906 1.0078 2.1406 0.57812s1.0078-1.3906 0.57812-2.1406zm-47.156-71.125c2.7188 0.51172 5.5234 0.33594 8.1562-0.51562l0.21875-0.09375c1.7031-0.82812 4.4844-0.5625 7.0156-0.10938v6.4531c-2.6836-0.39844-5.418-0.28906-8.0625 0.32812l-0.26562 0.09375c-2.2578 0.87891-4.7461 0.96875-7.0625 0.25zm5.4219 36.297c-2.3242-0.11719-4.6289-0.50781-6.8594-1.1719-2.332-0.68359-4.7422-1.082-7.1719-1.1875l5.0312-13.297 1.125-2.9688 1.4688 3.125 7.1406 15.375c-0.23828 0.070312-0.48438 0.11328-0.73438 0.125z"/>
  <path d="m11.625 25.453c1.5352-0.015625 3.0156-0.56641 4.1875-1.5625 3.0938 1.9922 7.0625 1.9922 10.156 0 1.3125 0.95703 2.8945 1.4688 4.5156 1.4688 2.3164 0.11719 4.5664-0.80078 6.1367-2.5078 1.5742-1.7031 2.3047-4.0195 2-6.3203-0.30078-2.2969-1.6133-4.3438-3.5742-5.582s-4.3711-1.5391-6.5781-0.82422c-2.0469-2.6992-5.3828-4.0977-8.7422-3.668-3.3594 0.42969-6.2344 2.6211-7.5391 5.7461h-0.5625c-3.668 0-6.6406 2.9727-6.6406 6.6406s2.9727 6.6406 6.6406 6.6406zm-0.1875-10.141h0.1875c1.2188-0.003906 2.3516 0.63281 2.9844 1.6719-0.023437-0.33984-0.023437-0.67578 0-1.0156-0.003906-0.95312 0.21094-1.8945 0.625-2.75 1.0586-2.2148 3.293-3.6289 5.75-3.6406 2.9844 0.019531 5.5664 2.082 6.25 4.9844 0.74609-0.80859 1.7617-1.3203 2.8594-1.4375h0.5c2.2656 0.375 3.9258 2.332 3.9258 4.625s-1.6602 4.25-3.9258 4.625c-0.76953 0.023438-1.5352-0.14844-2.2188-0.5-0.97266-0.50781-1.7344-1.3438-2.1562-2.3594-0.58984 0.92188-1.4219 1.668-2.4062 2.1562-0.89453 0.47656-1.8945 0.72266-2.9062 0.71875-2.4766-0.023437-4.7266-1.4609-5.7812-3.7031 0.007812 0.0625 0.007812 0.125 0 0.1875-0.003906 1.2266-0.64453 2.3594-1.6875 3-0.54688 0.32422-1.1758 0.49609-1.8125 0.5-1.9492 0.050781-3.5742-1.4883-3.625-3.4375s1.4883-3.5742 3.4375-3.625z"/>
 </g>
</svg>
